<svg width="39" height="37" viewBox="0 0 39 37" fill="none" xmlns="http://www.w3.org/2000/svg">
<path d="M38.0256 16.8538L30.1786 23.5968L32.5293 33.636C32.6536 34.1608 32.6182 34.7101 32.4272 35.2151C32.2363 35.7202 31.8984 36.1587 31.4557 36.4757C31.0131 36.7926 30.4854 36.9741 29.9386 36.9974C29.3918 37.0207 28.8501 36.8848 28.3813 36.6066L19.4887 31.2958L10.6152 36.6066C10.1464 36.8848 9.60474 37.0207 9.05793 36.9974C8.51111 36.9741 7.9834 36.7926 7.54077 36.4757C7.09814 36.1587 6.76023 35.7202 6.5693 35.2151C6.37836 34.7101 6.34287 34.1608 6.46726 33.636L8.81439 23.6071L0.965685 16.8538C0.550559 16.5013 0.25038 16.0359 0.10279 15.5161C-0.0447992 14.9962 -0.0332288 14.4451 0.13605 13.9317C0.305329 13.4183 0.624782 12.9655 1.05435 12.6302C1.48391 12.2948 2.00447 12.0919 2.55074 12.0467L12.8962 11.1644L16.9345 1.68028C17.1454 1.18263 17.5011 0.757542 17.9569 0.458543C18.4126 0.159544 18.948 0 19.4956 0C20.0433 0 20.5787 0.159544 21.0344 0.458543C21.4902 0.757542 21.8459 1.18263 22.0568 1.68028L26.1073 11.1644L36.4493 12.0467C36.9955 12.0919 37.5161 12.2948 37.9457 12.6302C38.3752 12.9655 38.6947 13.4183 38.8639 13.9317C39.0332 14.4451 39.0448 14.9962 38.8972 15.5161C38.7496 16.0359 38.4494 16.5013 38.0343 16.8538H38.0256Z" fill="#FFC700"/>
</svg>
